<svg viewBox="0 0 800 420" xmlns="http://www.w3.org/2000/svg">
  <rect width="800" height="420" fill="#14151a"/>
  <g opacity="0.25" stroke="#A8ABB8" stroke-width="1">
    <line x1="0" y1="105" x2="800" y2="105"/>
    <line x1="0" y1="210" x2="800" y2="210"/>
    <line x1="0" y1="315" x2="800" y2="315"/>
  </g>
  <g transform="translate(400,190)">
    <path d="M-90,-50 h180 a20,20 0 0 1 20,20 v60 a20,20 0 0 1 -20,20 h-110 l-40,35 v-35 h-30 a20,20 0 0 1 -20,-20 v-60 a20,20 0 0 1 20,-20 z" fill="none" stroke="#EB5E55" stroke-width="4"/>
    <circle cx="-45" cy="-10" r="6" fill="#EB5E55"/>
    <circle cx="0" cy="-10" r="6" fill="#D9A441"/>
    <circle cx="45" cy="-10" r="6" fill="#EB5E55"/>
    <path d="M100,-60 q40,10 40,50 q0,40 -40,50" fill="none" stroke="#D9A441" stroke-width="3" opacity="0.6"/>
  </g>
  <text x="36" y="380" font-family="IBM Plex Mono, monospace" font-size="20" fill="#F2F1EA">evangadi-ai-forum</text>
  <text x="36" y="404" font-family="IBM Plex Mono, monospace" font-size="13" fill="#A8ABB8">Node.js · Gemini API · RAG</text>
</svg>
