<svg viewBox="0 0 800 420" xmlns="http://www.w3.org/2000/svg">
  <rect width="800" height="420" fill="#14151a"/>
  <g opacity="0.25" stroke="#A8ABB8" stroke-width="1">
    <line x1="0" y1="105" x2="800" y2="105"/>
    <line x1="0" y1="210" x2="800" y2="210"/>
    <line x1="0" y1="315" x2="800" y2="315"/>
  </g>
  <g transform="translate(400,190)">
    <path d="M-110,60 h220 M-90,60 v-30 M-45,60 v-60 M0,60 v-90 M45,60 v-50 M90,60 v-20" stroke="#EB5E55" stroke-width="8" stroke-linecap="round"/>
    <circle cx="-90" cy="30" r="6" fill="#D9A441"/>
    <circle cx="-45" cy="0" r="6" fill="#D9A441"/>
    <circle cx="0" cy="-30" r="6" fill="#D9A441"/>
    <circle cx="45" cy="10" r="6" fill="#D9A441"/>
    <circle cx="90" cy="40" r="6" fill="#D9A441"/>
    <path d="M-90,30 L-45,0 L0,-30 L45,10 L90,40" fill="none" stroke="#F2F1EA" stroke-width="2.5" opacity="0.8"/>
  </g>
  <text x="36" y="380" font-family="IBM Plex Mono, monospace" font-size="20" fill="#F2F1EA">customer-experience-analytics</text>
  <text x="36" y="404" font-family="IBM Plex Mono, monospace" font-size="13" fill="#A8ABB8">Python · Sentiment Analysis</text>
</svg>
