<svg viewBox="0 0 800 420" xmlns="http://www.w3.org/2000/svg">
  <rect width="800" height="420" fill="#14151a"/>
  <g opacity="0.25" stroke="#A8ABB8" stroke-width="1">
    <line x1="0" y1="105" x2="800" y2="105"/>
    <line x1="0" y1="210" x2="800" y2="210"/>
    <line x1="0" y1="315" x2="800" y2="315"/>
  </g>
  <g transform="translate(400,185)">
    <rect x="-100" y="-60" width="200" height="120" rx="8" fill="none" stroke="#EB5E55" stroke-width="4"/>
    <g fill="#D9A441">
      <rect x="-100" y="-60" width="14" height="14"/>
      <rect x="-100" y="-30" width="14" height="14"/>
      <rect x="-100" y="0" width="14" height="14"/>
      <rect x="-100" y="30" width="14" height="14"/>
      <rect x="86" y="-60" width="14" height="14"/>
      <rect x="86" y="-30" width="14" height="14"/>
      <rect x="86" y="0" width="14" height="14"/>
      <rect x="86" y="30" width="14" height="14"/>
    </g>
    <path d="M-25,-25 l50,25 l-50,25 z" fill="#F2F1EA"/>
  </g>
  <text x="36" y="380" font-family="IBM Plex Mono, monospace" font-size="20" fill="#F2F1EA">movienetdb</text>
  <text x="36" y="404" font-family="IBM Plex Mono, monospace" font-size="13" fill="#A8ABB8">Web Dev · Database</text>
</svg>
