<svg viewBox="0 0 800 420" xmlns="http://www.w3.org/2000/svg">
  <rect width="800" height="420" fill="#14151a"/>
  <g opacity="0.25" stroke="#A8ABB8" stroke-width="1">
    <line x1="0" y1="105" x2="800" y2="105"/>
    <line x1="0" y1="210" x2="800" y2="210"/>
    <line x1="0" y1="315" x2="800" y2="315"/>
  </g>
  <g transform="translate(400,190)">
    <g stroke-width="4" stroke-linecap="round">
      <line x1="-140" y1="10" x2="-140" y2="-40" stroke="#EB5E55"/>
      <rect x="-152" y="-25" width="24" height="30" fill="#EB5E55"/>
      <line x1="-90" y1="30" x2="-90" y2="-20" stroke="#D9A441"/>
      <rect x="-102" y="-15" width="24" height="35" fill="#D9A441"/>
      <line x1="-40" y1="20" x2="-40" y2="-55" stroke="#EB5E55"/>
      <rect x="-52" y="-40" width="24" height="45" fill="#EB5E55"/>
      <line x1="10" y1="35" x2="10" y2="-15" stroke="#D9A441"/>
      <rect x="-2" y="-8" width="24" height="35" fill="#D9A441"/>
      <line x1="60" y1="10" x2="60" y2="-65" stroke="#EB5E55"/>
      <rect x="48" y="-50" width="24" height="50" fill="#EB5E55"/>
      <line x1="110" y1="25" x2="110" y2="-30" stroke="#D9A441"/>
      <rect x="98" y="-18" width="24" height="35" fill="#D9A441"/>
    </g>
  </g>
  <text x="36" y="380" font-family="IBM Plex Mono, monospace" font-size="20" fill="#F2F1EA">stock-sentiment-analysis</text>
  <text x="36" y="404" font-family="IBM Plex Mono, monospace" font-size="13" fill="#A8ABB8">Python · NLP</text>
</svg>
